<?xml version="1.0" encoding="UTF-8" standalone="no"?>
<!-- Created with Inkscape (http://www.inkscape.org/) -->

<svg
   xmlns:dc="http://purl.org/dc/elements/1.1/"
   xmlns:cc="http://creativecommons.org/ns#"
   xmlns:rdf="http://www.w3.org/1999/02/22-rdf-syntax-ns#"
   xmlns:svg="http://www.w3.org/2000/svg"
   xmlns="http://www.w3.org/2000/svg"
   xmlns:sodipodi="http://sodipodi.sourceforge.net/DTD/sodipodi-0.dtd"
   xmlns:inkscape="http://www.inkscape.org/namespaces/inkscape"
   width="50"
   height="52"
   viewBox="0 0 13.229167 13.758334"
   version="1.1"
   id="svg1490"
   inkscape:version="0.92.4 (5da689c313, 2019-01-14)"
   sodipodi:docname="logo.svg">
  <defs
     id="defs1484" />
  <sodipodi:namedview
     id="base"
     pagecolor="#ffffff"
     bordercolor="#666666"
     borderopacity="1.0"
     inkscape:pageopacity="0.0"
     inkscape:pageshadow="2"
     inkscape:zoom="5.6"
     inkscape:cx="20.708874"
     inkscape:cy="44.689639"
     inkscape:document-units="mm"
     inkscape:current-layer="layer1"
     showgrid="false"
     inkscape:window-width="1920"
     inkscape:window-height="1017"
     inkscape:window-x="1912"
     inkscape:window-y="-3"
     inkscape:window-maximized="1"
     units="px" />
  <metadata
     id="metadata1487">
    <rdf:RDF>
      <cc:Work
         rdf:about="">
        <dc:format>image/svg+xml</dc:format>
        <dc:type
           rdf:resource="http://purl.org/dc/dcmitype/StillImage" />
        <dc:title></dc:title>
      </cc:Work>
    </rdf:RDF>
  </metadata>
  <g
     inkscape:label="Layer 1"
     inkscape:groupmode="layer"
     id="layer1"
     transform="translate(0,-283.24164)">
    <g
       transform="matrix(0.07033265,0,0,0.07033265,-2.9711425,279.25906)"
       id="g1702">
      <g
         transform="translate(302.87951,-187.47619)"
         id="g1230">
        <g
           transform="translate(-306.23916,190.66104)"
           id="g1169">
          <path
             style="clip-rule:evenodd;fill:#414a5b;fill-opacity:1;fill-rule:nonzero;stroke-width:0.03005126;image-rendering:optimizeQuality;shape-rendering:geometricPrecision;text-rendering:geometricPrecision"
             d="m 128.20491,79.91295 -10.36785,21.30619 -4.35735,-3.4556 -3.06545,5.07824 -0.24029,-0.21032 -2.88458,2.31407 -10.007144,-13.192476 -7.332369,15.085906 -0.48524,0.53381 c 0.162266,0.46746 -0.183034,-0.42874 0,0 L 78.230696,119.72861 H 203.58015 l -16.70596,-14.08906 -3.43493,1.73994 -11.0293,-14.845087 -14.93552,12.561507 -11.05876,-9.82679 -4.08709,3.275767 z"
             id="path1133"
             inkscape:connector-curvature="0"
             sodipodi:nodetypes="ccccccccccccccccccc" />
          <polygon
             id="polygon1135"
             points="7147,8346 7272,8138 6965,7701 6963,8236 7036,8026 "
             class="fil90"
             style="clip-rule:evenodd;fill:#e3d8c7;fill-opacity:1;fill-rule:nonzero;image-rendering:optimizeQuality;shape-rendering:geometricPrecision;text-rendering:geometricPrecision"
             transform="matrix(0.03005126,0,0,0.03005126,-112.14117,-137.15868)" />
          <polygon
             id="polygon1137"
             points="7253,8426 7431,8508 7634,8386 7761,7990 7456,8326 7500,7948 "
             class="fil90"
             style="clip-rule:evenodd;fill:#e3d8c7;fill-opacity:1;fill-rule:nonzero;image-rendering:optimizeQuality;shape-rendering:geometricPrecision;text-rendering:geometricPrecision"
             transform="matrix(0.03005126,0,0,0.03005126,-112.14117,-137.15868)" />
          <polygon
             id="polygon1139"
             points="8758,7976 8605,7838 8450,8001 7999,7358 7997,8114 8099,7818 8252,8262 "
             class="fil90"
             style="clip-rule:evenodd;fill:#e3d8c7;fill-opacity:1;fill-rule:nonzero;image-rendering:optimizeQuality;shape-rendering:geometricPrecision;text-rendering:geometricPrecision"
             transform="matrix(0.03005126,0,0,0.03005126,-112.14117,-137.15868)" />
          <polygon
             id="polygon1141"
             points="9429,8249 9431,7724 8942,8168 8777,8054 8044,8475 8574,8290 8454,8426 8968,8301 9107,8434 9321,8043 "
             class="fil90"
             style="clip-rule:evenodd;fill:#e3d8c7;fill-opacity:1;fill-rule:nonzero;image-rendering:optimizeQuality;shape-rendering:geometricPrecision;text-rendering:geometricPrecision"
             transform="matrix(0.03005126,0,0,0.03005126,-112.14117,-137.15868)" />
          <polygon
             id="polygon1143"
             points="7147,8346 7272,8138 6965,7701 6963,8236 7036,8026 "
             class="fil90"
             style="clip-rule:evenodd;fill:#e3d8c7;fill-opacity:1;fill-rule:nonzero;image-rendering:optimizeQuality;shape-rendering:geometricPrecision;text-rendering:geometricPrecision"
             transform="matrix(0.03005126,0,0,0.03005126,-112.14117,-137.15868)" />
          <polygon
             id="polygon1145"
             points="7253,8426 7431,8508 7634,8386 7761,7990 7456,8326 7500,7948 "
             class="fil90"
             style="clip-rule:evenodd;fill:#e3d8c7;fill-opacity:1;fill-rule:nonzero;image-rendering:optimizeQuality;shape-rendering:geometricPrecision;text-rendering:geometricPrecision"
             transform="matrix(0.03005126,0,0,0.03005126,-112.14117,-137.15868)" />
          <polygon
             id="polygon1147"
             points="8758,7976 8605,7838 8450,8001 7999,7358 7997,8114 8099,7818 8252,8262 "
             class="fil90"
             style="clip-rule:evenodd;fill:#e3d8c7;fill-opacity:1;fill-rule:nonzero;image-rendering:optimizeQuality;shape-rendering:geometricPrecision;text-rendering:geometricPrecision"
             transform="matrix(0.03005126,0,0,0.03005126,-112.14117,-137.15868)" />
          <polygon
             id="polygon1149"
             points="9429,8249 9431,7724 8942,8168 8777,8054 8044,8475 8574,8290 8454,8426 8968,8301 9107,8434 9321,8043 "
             class="fil90"
             style="clip-rule:evenodd;fill:#e3d8c7;fill-opacity:1;fill-rule:nonzero;image-rendering:optimizeQuality;shape-rendering:geometricPrecision;text-rendering:geometricPrecision"
             transform="matrix(0.03005126,0,0,0.03005126,-112.14117,-137.15868)" />
          <path
             sodipodi:nodetypes="cccccc"
             inkscape:connector-curvature="0"
             id="path1151"
             d="m 89.29513,109.12785 8.292515,3.88322 v 0 l 3.724625,2.00823 -4.080043,2.72136 z"
             style="clip-rule:evenodd;fill:#e3d8c7;fill-opacity:1;fill-rule:nonzero;stroke-width:0.02430157;image-rendering:optimizeQuality;shape-rendering:geometricPrecision;text-rendering:geometricPrecision" />
          <g
             id="g1161"
             transform="translate(0.18998277,1.0583333)">
            <path
               sodipodi:nodetypes="cccccc"
               inkscape:connector-curvature="0"
               id="path1153"
               d="m 184.54013,106.4595 2.95205,7.0802 v 0 l 1.60176,3.25802 3.38593,-2.11677 z"
               style="clip-rule:evenodd;fill:#e3d8c7;fill-opacity:1;fill-rule:nonzero;stroke-width:0.02155609;image-rendering:optimizeQuality;shape-rendering:geometricPrecision;text-rendering:geometricPrecision" />
            <path
               id="path1155"
               d="m 190.53277,115.98383 0.90836,0.32856 -1.15961,-3.03433 0.73442,0.27058 -0.94702,-2.39654 0.61846,0.0387 -1.31423,-4.05865 -1.31423,4.05865 0.61846,-0.0387 -0.94702,2.39654 0.73443,-0.27058 -1.15962,3.03433 0.90837,-0.32856 -1.005,2.68644 h 1.89404 c 0.63778,-0.5025 1.27557,-1.04365 1.87471,-1.5848 l -0.40587,-1.08231 z"
               class="fil88"
               inkscape:connector-curvature="0"
               style="clip-rule:evenodd;fill:#424242;fill-opacity:1;fill-rule:nonzero;stroke-width:0.01932692;image-rendering:optimizeQuality;shape-rendering:geometricPrecision;text-rendering:geometricPrecision" />
            <polygon
               id="polygon1157"
               points="3450,9501 3519,9474 3442,9686 3773,9686 3696,9474 3765,9501 3677,9261 3732,9282 3661,9093 3708,9096 3607,8776 3507,9096 3554,9093 3482,9282 3538,9261 "
               class="fil88"
               style="clip-rule:evenodd;fill:#424242;fill-opacity:1;fill-rule:nonzero;image-rendering:optimizeQuality;shape-rendering:geometricPrecision;text-rendering:geometricPrecision"
               transform="matrix(0.01932692,0,0,0.01932692,125.52678,-68.42229)" />
            <polygon
               id="polygon1159"
               points="3298,9547 3246,9686 3471,9686 3419,9547 3466,9565 3406,9408 3444,9421 3395,9297 3427,9300 3359,9090 3290,9300 3322,9297 3274,9421 3311,9408 3251,9565 "
               class="fil88"
               style="clip-rule:evenodd;fill:#424242;fill-opacity:1;fill-rule:nonzero;image-rendering:optimizeQuality;shape-rendering:geometricPrecision;text-rendering:geometricPrecision"
               transform="matrix(0.01932692,0,0,0.01932692,135.95736,-68.530297)" />
          </g>
          <path
             id="path1163"
             d="m 81.7143,117.04216 0.90836,0.32856 -1.15961,-3.03433 0.73442,0.27058 -0.94702,-2.39654 0.61846,0.0387 -1.31423,-4.05865 -1.31423,4.05865 0.61846,-0.0387 -0.94702,2.39654 0.73443,-0.27058 -1.15962,3.03433 0.90837,-0.32856 -1.005,2.68644 h 1.89404 c 0.63778,-0.5025 1.27557,-1.04365 1.87471,-1.5848 l -0.40587,-1.08231 z"
             class="fil88"
             inkscape:connector-curvature="0"
             style="clip-rule:evenodd;fill:#424242;fill-opacity:1;fill-rule:nonzero;stroke-width:0.01932692;image-rendering:optimizeQuality;shape-rendering:geometricPrecision;text-rendering:geometricPrecision" />
          <polygon
             id="polygon1165"
             points="3482,9282 3538,9261 3450,9501 3519,9474 3442,9686 3773,9686 3696,9474 3765,9501 3677,9261 3732,9282 3661,9093 3708,9096 3607,8776 3507,9096 3554,9093 "
             class="fil88"
             style="clip-rule:evenodd;fill:#424242;fill-opacity:1;fill-rule:nonzero;image-rendering:optimizeQuality;shape-rendering:geometricPrecision;text-rendering:geometricPrecision"
             transform="matrix(0.01932692,0,0,0.01932692,16.70831,-67.363957)" />
          <polygon
             id="polygon1167"
             points="3311,9408 3251,9565 3298,9547 3246,9686 3471,9686 3419,9547 3466,9565 3406,9408 3444,9421 3395,9297 3427,9300 3359,9090 3290,9300 3322,9297 3274,9421 "
             class="fil88"
             style="clip-rule:evenodd;fill:#424242;fill-opacity:1;fill-rule:nonzero;image-rendering:optimizeQuality;shape-rendering:geometricPrecision;text-rendering:geometricPrecision"
             transform="matrix(0.01932692,0,0,0.01932692,27.13889,-67.471964)" />
        </g>
        <rect
           y="313.18851"
           x="-238.51543"
           height="3.056572"
           width="143.85435"
           id="rect1171"
           style="opacity:1;fill:#414a5b;fill-opacity:1;stroke:none;stroke-width:0.13510939;stroke-linecap:round;stroke-linejoin:round;stroke-miterlimit:4;stroke-dasharray:none;stroke-dashoffset:0;stroke-opacity:1" />
      </g>
      <g
         transform="translate(-2.0712829)"
         id="g1653">
        <g
           transform="translate(-4.61416,-15.33606)"
           id="g1130">
          <g
             style="fill:#414a5b;fill-opacity:1"
             id="g1114"
             transform="matrix(0.20533263,0,0,0.20533263,157.13482,180.08461)">
            <path
               d="m -78.657549,206.47311 q 0,-6.03215 3.253296,-9.21767 2.812746,-2.81275 7.387694,-2.81275 4.202174,0 7.150474,3.15163 2.982188,3.15163 2.982188,7.35381 0,4.33773 -1.931645,8.37046 -1.050543,2.23664 -4.913833,7.69269 -1.050543,1.49109 -3.117742,4.64272 l -1.152209,1.72832 q -1.118321,1.69442 -1.694425,2.67719 -0.271108,0.47444 -0.271108,0.5761 l 12.572634,0.0339 v 6.26937 h -20.36699 v -5.86271 q 0,-0.20333 1.423317,-2.3383 0.643882,-0.98277 1.457206,-2.16887 l 1.660537,-2.40608 q 1.457205,-1.99942 4.574947,-6.40493 2.9483,-4.1344 4.405506,-7.48936 1.186097,-2.74497 1.186097,-5.11716 0,-1.93165 -1.084432,-3.28719 -1.186097,-1.42331 -3.049965,-1.42331 -2.677192,0 -3.795512,3.08385 -0.372774,1.01666 -0.372774,2.43997 v 1.62665 h -6.303261 z"
               style="font-style:normal;font-variant:normal;font-weight:normal;font-stretch:normal;font-size:47.7150116px;line-height:800;font-family:Bebas;-inkscape-font-specification:'Bebas, Normal';font-variant-ligatures:normal;font-variant-caps:normal;font-variant-numeric:normal;font-feature-settings:normal;text-align:start;letter-spacing:0px;word-spacing:0px;writing-mode:lr-tb;text-anchor:start;fill:#414a5b;fill-opacity:1;stroke:none;stroke-width:3.97625065"
               id="path1105"
               inkscape:connector-curvature="0" />
            <path
               d="m -32.319262,227.28065 q 0,4.23606 -2.982189,7.18436 -2.982188,2.9483 -7.150474,2.9483 -4.236062,0 -7.218251,-2.9483 -2.948299,-2.98218 -2.948299,-7.18436 v -23.17973 q 0,-4.23607 2.982188,-7.18437 2.982188,-2.98219 7.184362,-2.98219 4.236063,0 7.184363,2.98219 2.9483,2.98219 2.9483,7.18437 z m -6.642147,-23.31529 q 0,-1.52498 -1.084432,-2.60941 -1.084432,-1.08444 -2.609415,-1.08444 -1.524982,0 -2.609414,1.08444 -1.050544,1.08443 -1.050544,2.60941 v 23.21363 q 0,1.52498 1.050544,2.60941 1.084432,1.08443 2.609414,1.08443 1.524983,0 2.609415,-1.08443 1.084432,-1.08443 1.084432,-2.60941 z"
               style="font-style:normal;font-variant:normal;font-weight:normal;font-stretch:normal;font-size:47.7150116px;line-height:800;font-family:Bebas;-inkscape-font-specification:'Bebas, Normal';font-variant-ligatures:normal;font-variant-caps:normal;font-variant-numeric:normal;font-feature-settings:normal;text-align:start;letter-spacing:0px;word-spacing:0px;writing-mode:lr-tb;text-anchor:start;fill:#414a5b;fill-opacity:1;stroke:none;stroke-width:3.97625065"
               id="path1108"
               inkscape:connector-curvature="0" />
            <path
               d="m -27.168208,206.47311 q 0,-6.03215 3.253297,-9.21767 2.812745,-2.81275 7.387693,-2.81275 4.202175,0 7.1504743,3.15163 2.9821882,3.15163 2.9821882,7.35381 0,4.33773 -1.9316446,8.37046 -1.0505436,2.23664 -4.9138329,7.69269 -1.050544,1.49109 -3.117742,4.64272 l -1.152209,1.72832 q -1.118321,1.69442 -1.694425,2.67719 -0.271108,0.47444 -0.271108,0.5761 l 12.572634,0.0339 v 6.26937 h -20.36699 v -5.86271 q 0,-0.20333 1.423317,-2.3383 0.643882,-0.98277 1.457206,-2.16887 l 1.660536,-2.40608 q 1.457206,-1.99942 4.574948,-6.40493 2.9483,-4.1344 4.405505,-7.48936 1.186098,-2.74497 1.186098,-5.11716 0,-1.93165 -1.084432,-3.28719 -1.186098,-1.42331 -3.049965,-1.42331 -2.677192,0 -3.795513,3.08385 -0.372773,1.01666 -0.372773,2.43997 v 1.62665 h -6.303262 z"
               style="font-style:normal;font-variant:normal;font-weight:normal;font-stretch:normal;font-size:47.7150116px;line-height:800;font-family:Bebas;-inkscape-font-specification:'Bebas, Normal';font-variant-ligatures:normal;font-variant-caps:normal;font-variant-numeric:normal;font-feature-settings:normal;text-align:start;letter-spacing:0px;word-spacing:0px;writing-mode:lr-tb;text-anchor:start;fill:#414a5b;fill-opacity:1;stroke:none;stroke-width:3.97625065"
               id="path1110"
               inkscape:connector-curvature="0" />
            <path
               d="m 19.123487,227.28065 q 0,4.23606 -2.982189,7.18436 -2.982188,2.9483 -7.1504736,2.9483 -4.2360628,0 -7.218251,-2.9483 -2.9482997,-2.98218 -2.9482997,-7.18436 v -23.17973 q 0,-4.23607 2.9821882,-7.18437 2.9821882,-2.98219 7.1843625,-2.98219 4.2360626,0 7.1843626,2.98219 2.9483,2.98219 2.9483,7.18437 z M 12.48134,203.96536 q 0,-1.52498 -1.084432,-2.60941 -1.084432,-1.08444 -2.6094146,-1.08444 -1.5249826,0 -2.6094147,1.08444 -1.0505436,1.08443 -1.0505436,2.60941 v 23.21363 q 0,1.52498 1.0505436,2.60941 1.0844321,1.08443 2.6094147,1.08443 1.5249826,0 2.6094146,-1.08443 1.084432,-1.08443 1.084432,-2.60941 z"
               style="font-style:normal;font-variant:normal;font-weight:normal;font-stretch:normal;font-size:47.7150116px;line-height:800;font-family:Bebas;-inkscape-font-specification:'Bebas, Normal';font-variant-ligatures:normal;font-variant-caps:normal;font-variant-numeric:normal;font-feature-settings:normal;text-align:start;letter-spacing:0px;word-spacing:0px;writing-mode:lr-tb;text-anchor:start;fill:#414a5b;fill-opacity:1;stroke:none;stroke-width:3.97625065"
               id="path1112"
               inkscape:connector-curvature="0" />
          </g>
          <path
             inkscape:connector-curvature="0"
             id="path1116"
             style="font-style:normal;font-variant:normal;font-weight:normal;font-stretch:normal;font-size:47.7150116px;line-height:800;font-family:Bebas;-inkscape-font-specification:'Bebas, Normal';font-variant-ligatures:normal;font-variant-caps:normal;font-variant-numeric:normal;font-feature-settings:normal;text-align:start;letter-spacing:0px;word-spacing:0px;writing-mode:lr-tb;text-anchor:start;fill:#414a5b;fill-opacity:1;stroke:none;stroke-width:0.81645399"
             d="M 119.19146,228.74285 V 220.017 h 3.74363 v 1.31514 h -2.42849 v 2.38673 h 1.7744 v 1.3221 h -1.7744 v 2.38674 h 2.42849 v 1.31514 z" />
          <path
             inkscape:connector-curvature="0"
             id="path1118"
             style="font-style:normal;font-variant:normal;font-weight:normal;font-stretch:normal;font-size:47.7150116px;line-height:800;font-family:Bebas;-inkscape-font-specification:'Bebas, Normal';font-variant-ligatures:normal;font-variant-caps:normal;font-variant-numeric:normal;font-feature-settings:normal;text-align:start;letter-spacing:0px;word-spacing:0px;writing-mode:lr-tb;text-anchor:start;fill:#414a5b;fill-opacity:1;stroke:none;stroke-width:0.81645399"
             d="m 128.19043,226.57183 q 0.0139,0.91155 -0.47317,1.55868 -0.32009,0.43838 -0.9046,0.6193 -0.31313,0.0974 -0.73063,0.0974 -0.77238,0 -1.28035,-0.38272 -0.42446,-0.31312 -0.67497,-0.84892 -0.24354,-0.54276 -0.28529,-1.2386 l 1.25252,-0.0905 q 0.0835,0.75847 0.40358,1.09943 0.23659,0.25746 0.54276,0.24354 0.43142,-0.0139 0.68888,-0.42446 0.13221,-0.20179 0.13221,-0.57755 0,-0.54275 -0.49405,-1.07855 -0.38967,-0.3688 -1.16901,-1.10639 -0.65409,-0.63322 -0.92547,-1.13422 -0.29225,-0.56363 -0.29225,-1.22468 0,-1.18989 0.80021,-1.80223 0.49405,-0.3688 1.22469,-0.3688 0.7028,0 1.2038,0.31313 0.38967,0.24354 0.62626,0.68193 0.24354,0.43837 0.29225,1.00896 l -1.25947,0.22963 q -0.0557,-0.53579 -0.30617,-0.83501 -0.18092,-0.21571 -0.52188,-0.21571 -0.36184,0 -0.54972,0.32009 -0.15308,0.25746 -0.15308,0.64017 0,0.59843 0.51492,1.21773 0.19484,0.23658 0.58451,0.55667 0.45925,0.38271 0.60538,0.5358 0.48709,0.48709 0.75151,0.96026 0.12525,0.22267 0.20179,0.41055 0.18788,0.46621 0.19484,0.83501 z" />
          <path
             inkscape:connector-curvature="0"
             id="path1120"
             style="font-style:normal;font-variant:normal;font-weight:normal;font-stretch:normal;font-size:47.7150116px;line-height:800;font-family:Bebas;-inkscape-font-specification:'Bebas, Normal';font-variant-ligatures:normal;font-variant-caps:normal;font-variant-numeric:normal;font-feature-settings:normal;text-align:start;letter-spacing:0px;word-spacing:0px;writing-mode:lr-tb;text-anchor:start;fill:#414a5b;fill-opacity:1;stroke:none;stroke-width:0.81645399"
             d="m 130.50236,221.3391 h -1.39864 v -1.31514 h 4.10547 v 1.31514 h -1.39169 v 7.40375 h -1.31514 z" />
          <path
             d="m 138.40364,225.06779 q 0,0.6565 -0.60538,1.1224 -0.60538,0.4659 -1.46127,0.4659 h -2.06665 V 220.017 h 2.06665 q 0.86285,0 1.46127,0.4659 0.60538,0.4659 0.60538,1.11711 z m -2.81815,0.59826 h 0.79325 q 0.31313,0 0.52884,-0.16942 0.21571,-0.17471 0.21571,-0.40765 v -3.47309 q 0,-0.23825 -0.22266,-0.40767 -0.21572,-0.16942 -0.52189,-0.16942 h -0.79325 z"
             style="font-style:normal;font-variant:normal;font-weight:normal;font-stretch:normal;font-size:47.7150116px;line-height:800;font-family:Bebas;-inkscape-font-specification:'Bebas, Normal';font-variant-ligatures:normal;font-variant-caps:normal;font-variant-numeric:normal;font-feature-settings:normal;text-align:start;letter-spacing:0px;word-spacing:0px;writing-mode:lr-tb;text-anchor:start;fill:#414a5b;fill-opacity:1;stroke:none;stroke-width:0.71216768"
             id="path1122"
             inkscape:connector-curvature="0" />
          <rect
             y="227.38228"
             x="134.24384"
             height="1.3536205"
             width="4.1863217"
             id="rect1124"
             style="opacity:1;fill:#414a5b;fill-opacity:1;stroke:none;stroke-width:0.24514799;stroke-linecap:round;stroke-linejoin:round;stroke-miterlimit:4;stroke-dasharray:none;stroke-dashoffset:0;stroke-opacity:1" />
          <path
             style="opacity:1;fill:#414a5b;fill-opacity:1;stroke:none;stroke-width:0.0061178;stroke-linecap:round;stroke-linejoin:round;stroke-miterlimit:4;stroke-dasharray:none;stroke-dashoffset:0;stroke-opacity:1"
             inkscape:transform-center-x="1.9519677"
             inkscape:transform-center-y="0.0211187"
             d="m 106.58897,224.36691 10.11298,0.63647 0.0342,-1.24691 z"
             id="path1126"
             inkscape:connector-curvature="0"
             sodipodi:nodetypes="cccc" />
          <path
             sodipodi:nodetypes="cccc"
             inkscape:connector-curvature="0"
             id="path1128"
             d="m 172.71286,224.36691 -10.11298,0.63647 -0.0342,-1.24691 z"
             inkscape:transform-center-y="0.0211187"
             inkscape:transform-center-x="-1.9519677"
             style="opacity:1;fill:#414a5b;fill-opacity:1;stroke:none;stroke-width:0.0061178;stroke-linecap:round;stroke-linejoin:round;stroke-miterlimit:4;stroke-dasharray:none;stroke-dashoffset:0;stroke-opacity:1" />
        </g>
        <g
           id="g1199"
           transform="translate(301.625,-183.39529)">
          <text
             id="text1097"
             y="379.87387"
             x="-228.12364"
             style="font-style:normal;font-weight:normal;font-size:19.83708572px;line-height:800;font-family:sans-serif;letter-spacing:0px;word-spacing:0px;fill:#e3d8c7;fill-opacity:1;stroke:none;stroke-width:1.65309036"
             xml:space="preserve"><tspan
               style="fill:#e3d8c7;fill-opacity:1;stroke-width:1.65309036"
               y="379.87387"
               x="-228.12364"
               id="tspan1095"
               sodipodi:role="line">INDUSTRIES</tspan></text>
          <text
             xml:space="preserve"
             style="font-style:normal;font-weight:normal;font-size:19.83708572px;line-height:800;font-family:sans-serif;letter-spacing:0px;word-spacing:0px;fill:#414a5b;fill-opacity:1;stroke:none;stroke-width:1.65309036"
             x="-229.18198"
             y="378.81555"
             id="text1175"><tspan
               sodipodi:role="line"
               id="tspan1173"
               x="-229.18198"
               y="378.81555"
               style="fill:#414a5b;fill-opacity:1;stroke-width:1.65309036">INDUSTRIES</tspan></text>
        </g>
        <g
           id="g1236"
           transform="translate(301.625,-186.55806)">
          <text
             transform="scale(0.99453977,1.0054902)"
             xml:space="preserve"
             style="font-style:normal;font-variant:normal;font-weight:normal;font-stretch:normal;font-size:47.47451019px;line-height:800;font-family:Bebas;-inkscape-font-specification:'Bebas, Normal';font-variant-ligatures:normal;font-variant-caps:normal;font-variant-numeric:normal;font-feature-settings:normal;text-align:start;letter-spacing:0px;word-spacing:0px;writing-mode:lr-tb;text-anchor:start;fill:#e3d8c7;fill-opacity:1;stroke:none;stroke-width:3.95620942"
             x="-259.96722"
             y="356.91461"
             id="text1101"><tspan
               sodipodi:role="line"
               id="tspan1099"
               x="-259.96722"
               y="356.91461"
               style="font-style:normal;font-variant:normal;font-weight:normal;font-stretch:normal;font-size:47.47451019px;font-family:Bebas;-inkscape-font-specification:'Bebas, Normal';font-variant-ligatures:normal;font-variant-caps:normal;font-variant-numeric:normal;font-feature-settings:normal;text-align:start;writing-mode:lr-tb;text-anchor:start;fill:#e3d8c7;fill-opacity:1;stroke-width:3.95620942">MAINES</tspan></text>
          <text
             id="text1179"
             y="355.86206"
             x="-260.79831"
             style="font-style:normal;font-variant:normal;font-weight:normal;font-stretch:normal;font-size:47.47451019px;line-height:800;font-family:Bebas;-inkscape-font-specification:'Bebas, Normal';font-variant-ligatures:normal;font-variant-caps:normal;font-variant-numeric:normal;font-feature-settings:normal;text-align:start;letter-spacing:0px;word-spacing:0px;writing-mode:lr-tb;text-anchor:start;fill:#414a5b;fill-opacity:1;stroke:none;stroke-width:3.95620942"
             xml:space="preserve"
             transform="scale(0.99453977,1.0054902)"><tspan
               style="font-style:normal;font-variant:normal;font-weight:normal;font-stretch:normal;font-size:47.47451019px;font-family:Bebas;-inkscape-font-specification:'Bebas, Normal';font-variant-ligatures:normal;font-variant-caps:normal;font-variant-numeric:normal;font-feature-settings:normal;text-align:start;writing-mode:lr-tb;text-anchor:start;fill:#414a5b;fill-opacity:1;stroke-width:3.95620942"
               y="355.86206"
               x="-260.79831"
               id="tspan1177"
               sodipodi:role="line">MAINES</tspan></text>
        </g>
      </g>
      <path
         inkscape:connector-curvature="0"
         id="path1103"
         d="m 49.167385,179.37368 -0.0186,18.71618 87.084085,50.39124 87.18227,-50.22122 0.0186,-18.8862 h -6.273 l -0.0155,15.98869 c -26.96871,15.77809 -53.93696,31.55649 -80.90566,47.3346 -26.93812,-15.83116 -53.876575,-31.66258 -80.814695,-47.49374 0.005,-5.27654 0.0103,-10.55301 0.0155,-15.82955 z"
         style="opacity:1;fill:#414a5b;fill-opacity:1;stroke:none;stroke-width:2;stroke-linecap:round;stroke-linejoin:bevel;stroke-miterlimit:4;stroke-dasharray:none;stroke-dashoffset:0;stroke-opacity:1" />
      <path
         inkscape:connector-curvature="0"
         style="opacity:1;fill:#414a5b;fill-opacity:1;stroke:none;stroke-width:2;stroke-linecap:round;stroke-linejoin:bevel;stroke-miterlimit:4;stroke-dasharray:none;stroke-dashoffset:0;stroke-opacity:1"
         d="m 49.16738,129.49428 -0.0186,-18.71617 87.08409,-50.39125 87.18228,50.22123 0.0186,18.88619 h -6.273 l -0.0155,-15.98869 C 190.17652,97.72751 163.20828,81.94911 136.23958,66.171 109.30146,82.00216 82.363,97.83358 55.42488,113.66474 c 0.005,5.27653 0.0103,10.55301 0.0155,15.82954 z"
         id="path1186" />
    </g>
  </g>
</svg>
